<svg version="1" xmlns="http://www.w3.org/2000/svg" width="933.333" height="933.333" viewBox="0 0 700.000000 700.000000"><path d="M116.9 43.3c-2.7 1.5-5.2 3.8-6.6 6.3l-2.3 3.9v295c0 190.6.4 296.3 1 298.5 1.1 4.1 6.1 9.4 10.3 10.9 2 .8 58.8 1.1 184.3 1.1H485V41H121.3l-4.4 2.3zm216.8 462.3c1.5 1.1 3.8 3.6 5.1 5.4 2.2 3.3 2.2 3.5 2.2 42s0 38.7-2.3 42c-1.2 1.9-3.8 4.3-5.7 5.4-3.4 2.1-4.7 2.1-76.5 2.1h-73l-3.7-2.3c-2.1-1.3-4.5-4-5.7-6.6-2-4-2.1-5.8-2.1-41.2 0-36.3.1-37 2.3-40.9 1.5-2.6 3.7-4.8 6.7-6.3l4.5-2.2 72.7.2c71.9.3 72.7.3 75.5 2.4z"/><path d="M209.8 526.7c-19.4.3-21.8.5-21.8 2s2.4 1.6 27.2 1c14.9-.4 46-.7 69-.7 36.5 0 41.8-.2 41.8-1.5s-5.8-1.5-47.2-1.3c-26 .2-57.1.4-69 .5zM199.3 551.7c-8 .3-11.3.7-11.3 1.6 0 .9 12.1 1.1 53.7 1 58.5-.3 84.3-1 84.3-2.4 0-.8-99.1-.9-126.7-.2zM242.3 575.7c-47.3.3-54.3.5-54.3 1.8s4.8 1.5 36.8 1.5c60.3 0 101.2-1.1 101.2-2.7 0-1-3-1.3-14.7-1.1-8.2.2-39.2.4-69 .5zM540.5 350.1v309.1l12.2-.4c11.8-.3 12.3-.4 16.6-3.4 2.4-1.8 6.3-3.5 8.7-3.9 4.9-.8 10.7-5.5 12.6-10.2 1.2-2.7 1.4-52.2 1.4-294.8 0-317.5.4-295-5.6-300.7-4.7-4.3-7.3-4.8-27.2-4.8h-18.7v309.1z"/></svg>